<svg width="31" height="31" viewBox="0 0 31 31" fill="none" xmlns="http://www.w3.org/2000/svg">
<path d="M0 2.90625C0 2.64933 0.102064 2.40291 0.28374 2.22124C0.465417 2.03956 0.711822 1.9375 0.96875 1.9375H3.875C4.09109 1.93755 4.30096 2.00987 4.47123 2.14293C4.64149 2.27599 4.76239 2.46214 4.81468 2.6718L5.59938 5.8125H28.0937C28.236 5.81264 28.3765 5.84409 28.5052 5.90462C28.6338 5.96517 28.7477 6.05332 28.8384 6.1628C28.9294 6.2723 28.9948 6.40043 29.0306 6.53812C29.0663 6.67582 29.0713 6.81969 29.0451 6.9595L26.1389 22.4595C26.0972 22.6815 25.9794 22.882 25.8058 23.0263C25.632 23.1706 25.4133 23.2498 25.1875 23.25H7.75C7.52415 23.2498 7.30548 23.1706 7.13176 23.0263C6.95805 22.882 6.84024 22.6815 6.79868 22.4595L3.89438 6.98857L3.11937 3.875H0.96875C0.711822 3.875 0.465417 3.77294 0.28374 3.59126C0.102064 3.40959 0 3.16317 0 2.90625ZM6.01012 7.75L8.55405 21.3125H24.3834L26.9273 7.75H6.01012ZM9.6875 23.25C8.65978 23.25 7.67417 23.6583 6.94746 24.3849C6.22075 25.1117 5.8125 26.0973 5.8125 27.125C5.8125 28.1526 6.22075 29.1383 6.94746 29.8651C7.67417 30.5917 8.65978 31 9.6875 31C10.7152 31 11.7008 30.5917 12.4275 29.8651C13.1542 29.1383 13.5625 28.1526 13.5625 27.125C13.5625 26.0973 13.1542 25.1117 12.4275 24.3849C11.7008 23.6583 10.7152 23.25 9.6875 23.25ZM23.25 23.25C22.2223 23.25 21.2367 23.6583 20.5099 24.3849C19.7833 25.1117 19.375 26.0973 19.375 27.125C19.375 28.1526 19.7833 29.1383 20.5099 29.8651C21.2367 30.5917 22.2223 31 23.25 31C24.2776 31 25.2633 30.5917 25.9901 29.8651C26.7167 29.1383 27.125 28.1526 27.125 27.125C27.125 26.0973 26.7167 25.1117 25.9901 24.3849C25.2633 23.6583 24.2776 23.25 23.25 23.25ZM9.6875 25.1875C10.2014 25.1875 10.6942 25.3916 11.0575 25.755C11.4209 26.1184 11.625 26.6111 11.625 27.125C11.625 27.6389 11.4209 28.1316 11.0575 28.495C10.6942 28.8584 10.2014 29.0625 9.6875 29.0625C9.17364 29.0625 8.68083 28.8584 8.31747 28.495C7.95414 28.1316 7.75 27.6389 7.75 27.125C7.75 26.6111 7.95414 26.1184 8.31747 25.755C8.68083 25.3916 9.17364 25.1875 9.6875 25.1875ZM23.25 25.1875C23.7639 25.1875 24.2566 25.3916 24.62 25.755C24.9834 26.1184 25.1875 26.6111 25.1875 27.125C25.1875 27.6389 24.9834 28.1316 24.62 28.495C24.2566 28.8584 23.7639 29.0625 23.25 29.0625C22.7361 29.0625 22.2434 28.8584 21.88 28.495C21.5166 28.1316 21.3125 27.6389 21.3125 27.125C21.3125 26.6111 21.5166 26.1184 21.88 25.755C22.2434 25.3916 22.7361 25.1875 23.25 25.1875Z" fill="white"/>
</svg>
